HIERARCHY
ROOT Hips
{
  OFFSET 7.472 4.781 -304.497
  CHANNELS 6 Xposition Yposition Zposition Zrotation Xrotation Yrotation
  JOINT LeftUpLeg
  {
    OFFSET 7.939 -8.911 0.828
    CHANNELS 6 Xposition Yposition Zposition Zrotation Xrotation Yrotation
    JOINT LeftLeg
    {
      OFFSET 0.000 -53.401 0.000
      CHANNELS 6 Xposition Yposition Zposition Zrotation Xrotation Yrotation
      JOINT LeftFoot
      {
        OFFSET 0.000 -40.605 -0.000
        CHANNELS 6 Xposition Yposition Zposition Zrotation Xrotation Yrotation
        End Site
        {
          OFFSET 0.000 -8.230 4.752
        }
      }
    }
  }
  JOINT RightUpLeg
  {
    OFFSET -8.950 -7.667 2.555
    CHANNELS 6 Xposition Yposition Zposition Zrotation Xrotation Yrotation
    JOINT RightLeg
    {
      OFFSET -0.000 -53.154 0.000
      CHANNELS 6 Xposition Yposition Zposition Zrotation Xrotation Yrotation
      JOINT RightFoot
      {
        OFFSET 0.000 -43.091 -0.000
        CHANNELS 6 Xposition Yposition Zposition Zrotation Xrotation Yrotation
        End Site
        {
          OFFSET 0.000 -7.372 4.256
        }
      }
    }
  }
  JOINT Spine
  {
    OFFSET -0.000 6.375 -6.375
    CHANNELS 6 Xposition Yposition Zposition Zrotation Xrotation Yrotation
    JOINT LeftShoulder
    {
      OFFSET -0.000 40.712 0.000
      CHANNELS 6 Xposition Yposition Zposition Zrotation Xrotation Yrotation
      JOINT LeftArm
      {
        OFFSET 22.670 0.000 -0.000
        CHANNELS 6 Xposition Yposition Zposition Zrotation Xrotation Yrotation
        JOINT LeftForeArm
        {
          OFFSET 24.241 0.000 0.000
          CHANNELS 6 Xposition Yposition Zposition Zrotation Xrotation Yrotation
          JOINT LeftHand
          {
            OFFSET 24.760 -0.000 -0.000
            CHANNELS 6 Xposition Yposition Zposition Zrotation Xrotation Yrotation
            JOINT LeftHandThumb1
            {
            OFFSET 4.970 -0.620 3.390
            CHANNELS 6 Xposition Yposition Zposition Zrotation Xrotation Yrotation
              JOINT LeftHandThumb2
              {
              OFFSET 2.150 -0.000 0.000
              CHANNELS 6 Xposition Yposition Zposition Zrotation Xrotation Yrotation
                JOINT LeftHandThumb3
                {
                OFFSET 2.200 -0.000 0.000
                CHANNELS 6 Xposition Yposition Zposition Zrotation Xrotation Yrotation
                  JOINT LeftHandThumb4
                  {
                  OFFSET 1.700 -0.000 0.000
                  CHANNELS 6 Xposition Yposition Zposition Zrotation Xrotation Yrotation
                  }
                }
              }
            }
            JOINT LeftHandIndex1
            {
            OFFSET 8.730 0.680 2.070
            CHANNELS 6 Xposition Yposition Zposition Zrotation Xrotation Yrotation
              JOINT LeftHandIndex2
              {
              OFFSET 2.670 -0.000 0.000
              CHANNELS 6 Xposition Yposition Zposition Zrotation Xrotation Yrotation
                JOINT LeftHandIndex3
                {
                OFFSET 2.130 -0.000 0.000
                CHANNELS 6 Xposition Yposition Zposition Zrotation Xrotation Yrotation
                  JOINT LeftHandIndex4
                  {
                  OFFSET 1.800 -0.000 0.000
                  CHANNELS 6 Xposition Yposition Zposition Zrotation Xrotation Yrotation
                  }
                }
              }
            }
            JOINT LeftHandMiddle1
            {
            OFFSET 9.220 0.670 0.550
            CHANNELS 6 Xposition Yposition Zposition Zrotation Xrotation Yrotation
              JOINT LeftHandMiddle2
              {
              OFFSET 2.660 -0.000 0.000
              CHANNELS 6 Xposition Yposition Zposition Zrotation Xrotation Yrotation
                JOINT LeftHandMiddle3
                {
                OFFSET 2.280 -0.000 0.000
                CHANNELS 6 Xposition Yposition Zposition Zrotation Xrotation Yrotation
                  JOINT LeftHandMiddle4
                  {
                  OFFSET 1.500 -0.000 0.000
                  CHANNELS 6 Xposition Yposition Zposition Zrotation Xrotation Yrotation
                  }
                }
              }
            }
            JOINT LeftHandRing1
            {
            OFFSET 9.250 0.670 -1.130
            CHANNELS 6 Xposition Yposition Zposition Zrotation Xrotation Yrotation
              JOINT LeftHandRing2
              {
              OFFSET 2.470 -0.000 0.000
              CHANNELS 6 Xposition Yposition Zposition Zrotation Xrotation Yrotation
                JOINT LeftHandRing3
                {
                OFFSET 2.210 -0.000 0.000
                CHANNELS 6 Xposition Yposition Zposition Zrotation Xrotation Yrotation
                  JOINT LeftHandRing4
                  {
                  OFFSET 1.800 -0.000 0.000
                  CHANNELS 6 Xposition Yposition Zposition Zrotation Xrotation Yrotation
                  }
                }
              }
            }
            JOINT LeftHandPinky1
            {
            OFFSET 9.350 0.660 -2.720
            CHANNELS 6 Xposition Yposition Zposition Zrotation Xrotation Yrotation
              JOINT LeftHandPinky2
              {
              OFFSET 1.630 -0.000 0.000
              CHANNELS 6 Xposition Yposition Zposition Zrotation Xrotation Yrotation
                JOINT LeftHandPinky3
                {
                OFFSET 1.710 -0.000 0.000
                CHANNELS 6 Xposition Yposition Zposition Zrotation Xrotation Yrotation
                  JOINT LeftHandPinky4
                  {
                  OFFSET 1.800 -0.000 0.000
                  CHANNELS 6 Xposition Yposition Zposition Zrotation Xrotation Yrotation
                  }
                }
              }
            }
          }
        }
      }
    }
    JOINT RightShoulder
    {
      OFFSET -0.000 40.712 0.000
      CHANNELS 6 Xposition Yposition Zposition Zrotation Xrotation Yrotation
      JOINT RightArm
      {
        OFFSET -24.620 0.000 -0.000
        CHANNELS 6 Xposition Yposition Zposition Zrotation Xrotation Yrotation
        JOINT RightForeArm
        {
          OFFSET -28.919 0.000 0.000
          CHANNELS 6 Xposition Yposition Zposition Zrotation Xrotation Yrotation
          JOINT RightHand
          {
            OFFSET -26.958 0.000 -0.000
            CHANNELS 6 Xposition Yposition Zposition Zrotation Xrotation Yrotation
            JOINT RightHandThumb1
            {
            OFFSET -4.970 -0.620 3.390
            CHANNELS 6 Xposition Yposition Zposition Zrotation Xrotation Yrotation
              JOINT RightHandThumb2
              {
              OFFSET -2.150 0.000 0.000
              CHANNELS 6 Xposition Yposition Zposition Zrotation Xrotation Yrotation
                JOINT RightHandThumb3
                {
                OFFSET -2.200 0.000 0.000
                CHANNELS 6 Xposition Yposition Zposition Zrotation Xrotation Yrotation
                  JOINT RightHandThumb4
                  {
                  OFFSET -1.700 0.000 0.000
                  CHANNELS 6 Xposition Yposition Zposition Zrotation Xrotation Yrotation
                  }
                }
              }
            }
            JOINT RightHandIndex1
            {
            OFFSET -8.730 0.680 2.070
            CHANNELS 6 Xposition Yposition Zposition Zrotation Xrotation Yrotation
              JOINT RightHandIndex2
              {
              OFFSET -2.670 0.000 0.000
              CHANNELS 6 Xposition Yposition Zposition Zrotation Xrotation Yrotation
                JOINT RightHandIndex3
                {
                OFFSET -2.130 0.000 0.000
                CHANNELS 6 Xposition Yposition Zposition Zrotation Xrotation Yrotation
                  JOINT RightHandIndex4
                  {
                  OFFSET -1.800 0.000 0.000
                  CHANNELS 6 Xposition Yposition Zposition Zrotation Xrotation Yrotation
                  }
                }
              }
            }
            JOINT RightHandMiddle1
            {
            OFFSET -9.220 0.670 0.550
            CHANNELS 6 Xposition Yposition Zposition Zrotation Xrotation Yrotation
              JOINT RightHandMiddle2
              {
              OFFSET -2.660 0.000 0.000
              CHANNELS 6 Xposition Yposition Zposition Zrotation Xrotation Yrotation
                JOINT RightHandMiddle3
                {
                OFFSET -2.280 0.000 0.000
                CHANNELS 6 Xposition Yposition Zposition Zrotation Xrotation Yrotation
                  JOINT RightHandMiddle4
                  {
                  OFFSET -1.500 0.000 0.000
                  CHANNELS 6 Xposition Yposition Zposition Zrotation Xrotation Yrotation
                  }
                }
              }
            }
            JOINT RightHandRing1
            {
            OFFSET -9.250 0.670 -1.130
            CHANNELS 6 Xposition Yposition Zposition Zrotation Xrotation Yrotation
              JOINT RightHandRing2
              {
              OFFSET -2.470 0.000 0.000
              CHANNELS 6 Xposition Yposition Zposition Zrotation Xrotation Yrotation
                JOINT RightHandRing3
                {
                OFFSET -2.210 0.000 0.000
                CHANNELS 6 Xposition Yposition Zposition Zrotation Xrotation Yrotation
                  JOINT RightHandRing4
                  {
                  OFFSET -1.800 0.000 0.000
                  CHANNELS 6 Xposition Yposition Zposition Zrotation Xrotation Yrotation
                  }
                }
              }
            }
            JOINT RightHandPinky1
            {
            OFFSET -9.350 0.660 -2.720
            CHANNELS 6 Xposition Yposition Zposition Zrotation Xrotation Yrotation
              JOINT RightHandPinky2
              {
              OFFSET -1.630 0.000 0.000
              CHANNELS 6 Xposition Yposition Zposition Zrotation Xrotation Yrotation
                JOINT RightHandPinky3
                {
                OFFSET -1.710 0.000 0.000
                CHANNELS 6 Xposition Yposition Zposition Zrotation Xrotation Yrotation
                  JOINT RightHandPinky4
                  {
                  OFFSET -1.800 0.000 0.000
                  CHANNELS 6 Xposition Yposition Zposition Zrotation Xrotation Yrotation
                  }
                }
              }
            }
          }
        }
      }
    }
    JOINT Neck
    {
      OFFSET -0.000 40.712 0.000
      CHANNELS 6 Xposition Yposition Zposition Zrotation Xrotation Yrotation
      JOINT Head
      {
        OFFSET -0.000 18.333 0.000
        CHANNELS 6 Xposition Yposition Zposition Zrotation Xrotation Yrotation
        End Site
        {
          OFFSET -0.000 0.073 0.000
        }
      }
    }
  }
}
MOTION
Frames:	6
Frame Time:	0.0333333
6.07442 0.0985927 -306.61 -2.04863 -4.26027 31.0595 6.93465 -7.62721 1.80736 -0.76157 8.12113 -1.09699 0 -52.1415 0 -5.83265 -7.90845 -0.805256 -1.19209e-05 -37.6951 2.38419e-05 17.3594 -17.9802 15.0341 -7.30548 -6.59156 1.65246 -8.30015 0.409349 -1.24839 1.19209e-05 -50.7542 -7.15256e-05 14.7673 3.53833 6.84324e-06 1.19209e-05 -41.5285 7.15256e-05 -5.29376 -15.5641 -4.36856 3.57628e-05 6.58832 -6.58832 -0.98285 -3.90474 -0.534348 -1.19209e-05 40.7118 0 -38.569 1.36604e-05 -9.55139 21.653 -3.57628e-05 -7.15256e-05 -40.4424 33.3448 4.369 28.4082 1.04308e-05 0 4.52542e-06 2.56132e-06 -22.4877 24.2761 -4.47035e-06 -4.76837e-05 -0.650694 0.00374709 -5.04704 0.0062 0.0497 0.0339 0 0 0 0 0.0215 0 0 0 0 0 0.022 0 0 0 0 0 0.017 0 0 0 0 -0.0068 0.0873 0.0207 0 0 0 0 0.0267 0 0 0 0 0 0.0213 0 0 0 0 0 0.018 0 0 0 0 -0.0067 0.0922 0.0055 0 0 0 0 0.0266 0 0 0 0 0 0.0228 0 0 0 0 0 0.015 0 0 0 0 -0.0067 0.0925 -0.0113 0 0 0 0 0.0247 0 0 0 0 0 0.0221 0 0 0 0 0 0.018 0 0 0 0 -0.0066 0.0935 -0.0272 0 0 0 0 0.0163 0 0 0 0 0 0.0171 0 0 0 0 0 0.018 0 0 0 0 -1.19209e-05 40.7118 0 39.9103 -6.83019e-06 9.64235 -21.4506 8.9407e-06 0 28.4907 16.316 -0.038719 -28.4005 -1.19209e-05 -1.19209e-05 -2.1284e-07 8.53774e-06 24.9985 -29.7895 4.76837e-05 0 9.17326 0.0323083 5.90656 -0.0062 0.0497 0.0339 0 0 0 0 0.0215 0 0 0 0 0 0.022 0 0 0 0 0 0.017 0 0 0 0 0.0068 0.0873 0.0207 0 0 0 0 0.0267 0 0 0 0 0 0.0213 0 0 0 0 0 0.018 0 0 0 0 0.0067 0.0922 0.0055 0 0 0 0 0.0266 0 0 0 0 0 0.0228 0 0 0 0 0 0.015 0 0 0 0 0.0067 0.0925 -0.0113 0 0 0 0 0.0247 0 0 0 0 0 0.0221 0 0 0 0 0 0.018 0 0 0 0 0.0066 0.0935 -0.0272 0 0 0 0 0.0163 0 0 0 0 0 0.0171 0 0 0 0 0 0.018 0 0 0 0 -1.19209e-05 40.7118 0 -8.99543 14.2919 2.23791 1.19209e-05 19.8548 -7.15256e-05 9.4282e-06 -9.52491e-06 5.12264e-06 
6.06545 0.163811 -306.634 -2.00768 -4.19643 30.6086 6.96737 -7.68186 1.83139 -0.929961 8.1699 -1.18322 -3.57628e-05 -52.1745 4.76837e-05 -5.7331 -8.10044 -0.810504 0 -37.7389 -7.15256e-05 18.4485 -17.1877 15.8019 -7.3396 -6.61996 1.6516 -8.34203 0.311155 -1.35972 -1.19209e-05 -50.7808 0.000119209 14.7536 3.56932 -3.42173e-06 -1.19209e-05 -41.5436 -2.38419e-05 -5.17539 -15.5399 -4.27139 0 6.60694 -6.60689 -1.00973 -4.10347 -0.483602 -2.38419e-05 40.7119 4.76837e-05 -38.4832 2.04906e-05 -9.72459 21.7949 1.19209e-05 0 -38.1427 22.7118 2.31746 27.4538 -5.96046e-06 -0.000119209 6.3546e-06 1.4941e-06 -26.5599 23.582 2.98023e-06 -2.38419e-05 -5.03348 0.132155 -5.3648 0.0062 0.0497 0.0339 0 0 0 0 0.0215 0 0 0 0 0 0.022 0 0 0 0 0 0.017 0 0 0 0 -0.0068 0.0873 0.0207 0 0 0 0 0.0267 0 0 0 0 0 0.0213 0 0 0 0 0 0.018 0 0 0 0 -0.0067 0.0922 0.0055 0 0 0 0 0.0266 0 0 0 0 0 0.0228 0 0 0 0 0 0.015 0 0 0 0 -0.0067 0.0925 -0.0113 0 0 0 0 0.0247 0 0 0 0 0 0.0221 0 0 0 0 0 0.018 0 0 0 0 -0.0066 0.0935 -0.0272 0 0 0 0 0.0163 0 0 0 0 0 0.0171 0 0 0 0 0 0.018 0 0 0 0 -2.38419e-05 40.7119 4.76837e-05 39.9652 -6.83019e-06 9.81013 -21.6066 -2.98023e-06 0 26.8565 6.34562 1.13656 -27.5649 1.19209e-05 -4.76837e-05 8.6059e-06 -5.12264e-06 28.4737 -29.584 -3.57628e-05 2.38419e-05 8.62118 0.0154977 5.2739 -0.0062 0.0497 0.0339 0 0 0 0 0.0215 0 0 0 0 0 0.022 0 0 0 0 0 0.017 0 0 0 0 0.0068 0.0873 0.0207 0 0 0 0 0.0267 0 0 0 0 0 0.0213 0 0 0 0 0 0.018 0 0 0 0 0.0067 0.0922 0.0055 0 0 0 0 0.0266 0 0 0 0 0 0.0228 0 0 0 0 0 0.015 0 0 0 0 0.0067 0.0925 -0.0113 0 0 0 0 0.0247 0 0 0 0 0 0.0221 0 0 0 0 0 0.018 0 0 0 0 0.0066 0.0935 -0.0272 0 0 0 0 0.0163 0 0 0 0 0 0.0171 0 0 0 0 0 0.018 0 0 0 0 -2.38419e-05 40.7119 4.76837e-05 -9.11602 14.6767 2.32807 0 19.7969 -7.15256e-05 8.29094e-06 -1.31268e-05 3.41509e-06 
6.03165 0.24463 -306.681 -1.97054 -4.20652 30.093 6.99978 -7.74381 1.8559 -0.998899 8.24222 -1.40644 2.38419e-05 -52.173 0 -5.72215 -8.25131 -0.823892 -2.38419e-05 -37.8008 -2.38419e-05 19.2645 -16.5483 16.394 -7.37733 -6.64051 1.6223 -8.3131 0.169618 -1.57653 0 -50.8186 0 14.3322 3.62911 0 -5.96046e-05 -41.363 2.38419e-05 -4.52714 -15.2558 -3.75204 2.38419e-05 6.61659 -6.61659 -1.06593 -4.27309 -0.434898 -3.57628e-05 40.7119 2.38419e-05 -38.386 1.8783e-05 -9.90909 21.9316 1.19209e-05 -4.76837e-05 -36.3432 12.16 0.489813 26.3173 0 0 0 0 -35.0006 22.0128 -1.19209e-05 0 -7.59066 0.178919 -5.11415 0.0062 0.0497 0.0339 0 0 0 0 0.0215 0 0 0 0 0 0.022 0 0 0 0 0 0.017 0 0 0 0 -0.0068 0.0873 0.0207 0 0 0 0 0.0267 0 0 0 0 0 0.0213 0 0 0 0 0 0.018 0 0 0 0 -0.0067 0.0922 0.0055 0 0 0 0 0.0266 0 0 0 0 0 0.0228 0 0 0 0 0 0.015 0 0 0 0 -0.0067 0.0925 -0.0113 0 0 0 0 0.0247 0 0 0 0 0 0.0221 0 0 0 0 0 0.018 0 0 0 0 -0.0066 0.0935 -0.0272 0 0 0 0 0.0163 0 0 0 0 0 0.0171 0 0 0 0 0 0.018 0 0 0 0 -3.57628e-05 40.7119 2.38419e-05 40.0249 -1.28066e-05 9.9797 -21.7778 -2.98023e-06 -2.38419e-05 23.732 2.03342 3.40582 -26.4972 -1.19209e-05 7.15256e-05 5.17115e-06 -1.70755e-06 32.8893 -28.5518 1.19209e-05 -2.38419e-05 6.94674 0.00624918 4.73876 -0.0062 0.0497 0.0339 0 0 0 0 0.0215 0 0 0 0 0 0.022 0 0 0 0 0 0.017 0 0 0 0 0.0068 0.0873 0.0207 0 0 0 0 0.0267 0 0 0 0 0 0.0213 0 0 0 0 0 0.018 0 0 0 0 0.0067 0.0922 0.0055 0 0 0 0 0.0266 0 0 0 0 0 0.0228 0 0 0 0 0 0.015 0 0 0 0 0.0067 0.0925 -0.0113 0 0 0 0 0.0247 0 0 0 0 0 0.0221 0 0 0 0 0 0.018 0 0 0 0 0.0066 0.0935 -0.0272 0 0 0 0 0.0163 0 0 0 0 0 0.0171 0 0 0 0 0 0.018 0 0 0 0 -3.57628e-05 40.7119 2.38419e-05 -9.30957 14.9695 2.42463 2.38419e-05 19.7265 -2.38419e-05 1.02853e-05 -8.83122e-06 0 
5.99043 0.306653 -306.737 -1.95235 -4.30222 29.7333 7.03464 -7.79269 1.87716 -0.985068 8.33854 -1.57952 -1.19209e-05 -52.1577 0 -5.73273 -8.30848 -0.831119 2.38419e-05 -37.8461 0 19.7719 -16.1196 16.7602 -7.41136 -6.66396 1.60308 -8.22171 0.113059 -1.76206 -1.19209e-05 -50.8466 0 14.1491 3.77558 1.71126e-06 2.38419e-05 -41.3022 -2.38419e-05 -3.95974 -15.0157 -3.30396 2.38419e-05 6.62286 -6.62286 -1.06254 -4.3905 -0.473957 0 40.7119 0 -38.3439 6.83019e-06 -10.1758 22.0628 1.19209e-05 2.38419e-05 -35.1871 2.96425 -0.647573 25.6594 0 -2.38419e-05 0 0 -46.4867 20.2085 -1.19209e-05 0 -7.88372 0.164132 -5.34922 0.0062 0.0497 0.0339 0 0 0 0 0.0215 0 0 0 0 0 0.022 0 0 0 0 0 0.017 0 0 0 0 -0.0068 0.0873 0.0207 0 0 0 0 0.0267 0 0 0 0 0 0.0213 0 0 0 0 0 0.018 0 0 0 0 -0.0067 0.0922 0.0055 0 0 0 0 0.0266 0 0 0 0 0 0.0228 0 0 0 0 0 0.015 0 0 0 0 -0.0067 0.0925 -0.0113 0 0 0 0 0.0247 0 0 0 0 0 0.0221 0 0 0 0 0 0.018 0 0 0 0 -0.0066 0.0935 -0.0272 0 0 0 0 0.0163 0 0 0 0 0 0.0171 0 0 0 0 0 0.018 0 0 0 0 0 40.7119 0 39.9833 -5.97642e-06 10.2694 -21.864 1.19209e-05 4.76837e-05 24.3754 -8.95789 3.76995 -26.4004 -5.96046e-06 2.38419e-05 -1.12303e-06 -6.83019e-06 38.3997 -26.5355 1.19209e-05 1.19209e-05 5.88419 0.013561 5.66987 -0.0062 0.0497 0.0339 0 0 0 0 0.0215 0 0 0 0 0 0.022 0 0 0 0 0 0.017 0 0 0 0 0.0068 0.0873 0.0207 0 0 0 0 0.0267 0 0 0 0 0 0.0213 0 0 0 0 0 0.018 0 0 0 0 0.0067 0.0922 0.0055 0 0 0 0 0.0266 0 0 0 0 0 0.0228 0 0 0 0 0 0.015 0 0 0 0 0.0067 0.0925 -0.0113 0 0 0 0 0.0247 0 0 0 0 0 0.0221 0 0 0 0 0 0.018 0 0 0 0 0.0066 0.0935 -0.0272 0 0 0 0 0.0163 0 0 0 0 0 0.0171 0 0 0 0 0 0.018 0 0 0 0 0 40.7119 0 -9.47339 15.3755 2.53332 0 19.6991 0 1.17661e-05 -1.19262e-05 0 
5.94307 0.37645 -306.804 -1.92366 -4.42859 29.2293 7.07998 -7.84771 1.88878 -0.906694 8.43511 -1.69871 1.19209e-05 -52.0924 0 -5.91305 -8.32378 -0.858999 0 -37.951 4.76837e-05 20.2777 -15.649 17.1316 -7.45114 -6.68934 1.59032 -8.13705 -0.0410554 -1.93142 -1.19209e-05 -50.8061 -2.38419e-05 13.9755 4.1598 5.13617e-06 1.19209e-05 -41.331 2.38419e-05 -3.19413 -14.7549 -2.70106 -1.19209e-05 6.62983 -6.62982 -1.03157 -4.51893 -0.548355 -2.38419e-05 40.7119 4.76837e-05 -38.2249 6.83019e-06 -10.513 22.2929 3.57628e-05 2.38419e-05 -34.8846 -3.32906 -0.600579 25.3411 -1.19209e-05 2.38419e-05 7.11532e-07 -3.4151e-06 -66.4617 20.3902 -1.19209e-05 -1.19209e-05 -9.74903 0.0910731 -2.69914 0.0062 0.0497 0.0339 0 0 0 0 0.0215 0 0 0 0 0 0.022 0 0 0 0 0 0.017 0 0 0 0 -0.0068 0.0873 0.0207 0 0 0 0 0.0267 0 0 0 0 0 0.0213 0 0 0 0 0 0.018 0 0 0 0 -0.0067 0.0922 0.0055 0 0 0 0 0.0266 0 0 0 0 0 0.0228 0 0 0 0 0 0.015 0 0 0 0 -0.0067 0.0925 -0.0113 0 0 0 0 0.0247 0 0 0 0 0 0.0221 0 0 0 0 0 0.018 0 0 0 0 -0.0066 0.0935 -0.0272 0 0 0 0 0.0163 0 0 0 0 0 0.0171 0 0 0 0 0 0.018 0 0 0 0 -2.38419e-05 40.7119 4.76837e-05 40.1175 -3.41509e-06 10.7198 -21.8677 0 0 24.7465 -19.4761 4.10533 -26.3518 -4.47035e-06 0 7.18375e-06 1.70755e-06 49.335 -24.6342 1.3411e-05 5.96046e-06 5.13961 0.0203326 7.88484 -0.0062 0.0497 0.0339 0 0 0 0 0.0215 0 0 0 0 0 0.022 0 0 0 0 0 0.017 0 0 0 0 0.0068 0.0873 0.0207 0 0 0 0 0.0267 0 0 0 0 0 0.0213 0 0 0 0 0 0.018 0 0 0 0 0.0067 0.0922 0.0055 0 0 0 0 0.0266 0 0 0 0 0 0.0228 0 0 0 0 0 0.015 0 0 0 0 0.0067 0.0925 -0.0113 0 0 0 0 0.0247 0 0 0 0 0 0.0221 0 0 0 0 0 0.018 0 0 0 0 0.0066 0.0935 -0.0272 0 0 0 0 0.0163 0 0 0 0 0 0.0171 0 0 0 0 0 0.018 0 0 0 0 -2.38419e-05 40.7119 4.76837e-05 -9.92372 15.507 2.67807 3.57628e-05 19.6656 -0.000119209 9.36483e-06 -1.14726e-05 0 
5.89813 0.463822 -306.873 -1.79077 -4.50872 28.5567 7.09918 -7.86867 1.86114 -0.946245 8.48797 -1.5648 0 -52.1003 2.38419e-05 -6.11752 -8.22069 -0.877992 -1.19209e-05 -37.9985 -4.76837e-05 21.0525 -14.9104 17.6195 -7.48339 -6.66303 1.60184 -8.02352 -0.19106 -1.81171 0 -50.7998 0 13.4136 4.44453 8.56349e-06 -1.19209e-05 -41.3382 2.38419e-05 -2.31096 -14.4888 -2.01635 -1.19209e-05 6.63591 -6.63598 -1.08216 -4.61952 -0.458648 0 40.7118 0 -37.7721 1.02453e-05 -10.992 22.4427 1.19209e-05 -4.76837e-05 -28.3789 1.49229 -9.14262 23.1698 0 2.38419e-05 9.54757e-06 0 -69.0414 21.3243 -1.19209e-05 -5.96046e-06 -9.77738 0.0550037 -1.99836 0.0062 0.0497 0.0339 0 0 0 0 0.0215 0 0 0 0 0 0.022 0 0 0 0 0 0.017 0 0 0 0 -0.0068 0.0873 0.0207 0 0 0 0 0.0267 0 0 0 0 0 0.0213 0 0 0 0 0 0.018 0 0 0 0 -0.0067 0.0922 0.0055 0 0 0 0 0.0266 0 0 0 0 0 0.0228 0 0 0 0 0 0.015 0 0 0 0 -0.0067 0.0925 -0.0113 0 0 0 0 0.0247 0 0 0 0 0 0.0221 0 0 0 0 0 0.018 0 0 0 0 -0.0066 0.0935 -0.0272 0 0 0 0 0.0163 0 0 0 0 0 0.0171 0 0 0 0 0 0.018 0 0 0 0 0 40.7118 0 40.7326 -9.39151e-06 11.3826 -21.6821 1.04308e-05 -9.53674e-05 19.7676 -22.1243 13.1717 -26.8241 -3.91155e-06 2.38419e-05 5.58622e-06 -2.34788e-06 50.8358 -23.8824 6.33299e-06 2.98023e-05 4.53055 0.00595267 9.0747 -0.0062 0.0497 0.0339 0 0 0 0 0.0215 0 0 0 0 0 0.022 0 0 0 0 0 0.017 0 0 0 0 0.0068 0.0873 0.0207 0 0 0 0 0.0267 0 0 0 0 0 0.0213 0 0 0 0 0 0.018 0 0 0 0 0.0067 0.0922 0.0055 0 0 0 0 0.0266 0 0 0 0 0 0.0228 0 0 0 0 0 0.015 0 0 0 0 0.0067 0.0925 -0.0113 0 0 0 0 0.0247 0 0 0 0 0 0.0221 0 0 0 0 0 0.018 0 0 0 0 0.0066 0.0935 -0.0272 0 0 0 0 0.0163 0 0 0 0 0 0.0171 0 0 0 0 0 0.018 0 0 0 0 0 40.7118 0 -10.4199 15.3773 2.79174 1.19209e-05 19.6441 -7.15256e-05 7.34545e-06 -1.05654e-05 1.70755e-06 
